<svg xmlns="http://www.w3.org/2000/svg" width="100" height="100" fill="none"><circle cx="50" cy="50" r="49.444" stroke="#fff" stroke-width="1.111"/><circle cx="50" cy="50" r="44.444" fill="#fff"/><circle cx="50" cy="50" r="38.333" fill="#fff" stroke="#DDE5ED" stroke-width="1.111"/><path fill="url(#a)" d="m51.074 17.477 1.084 3.335h3.507l-2.837 2.062 1.084 3.336-2.838-2.062-2.838 2.062 1.084-3.336-2.837-2.062h3.507l1.084-3.335Z"/><path fill="url(#b)" d="m51.074 75.41 1.084 3.335h3.507l-2.837 2.062 1.084 3.336-2.838-2.062-2.838 2.062 1.084-3.336-2.837-2.062h3.507l1.084-3.336Z"/><path fill="url(#c)" d="m80.04 46.442 1.084 3.336h3.508l-2.838 2.062 1.084 3.336-2.838-2.062-2.838 2.062 1.084-3.336-2.837-2.062h3.507l1.084-3.336Z"/><path fill="url(#d)" d="m22.107 46.442 1.084 3.336H26.7l-2.84 2.062 1.084 3.336-2.838-2.062-2.837 2.062 1.083-3.336-2.837-2.062h3.507l1.084-3.336Z"/><path fill="url(#e)" d="m76.178 31.96 1.084 3.336h3.508l-2.838 2.062 1.084 3.336-2.838-2.062-2.838 2.062 1.084-3.336-2.837-2.062h3.507l1.084-3.336Z"/><path fill="url(#f)" d="m65.557 21.34 1.084 3.336h3.507l-2.837 2.062 1.084 3.335-2.838-2.061-2.838 2.061 1.084-3.335-2.837-2.062h3.507l1.084-3.336Z"/><path fill="url(#g)" d="m36.59 71.547 1.084 3.336h3.508l-2.838 2.062 1.084 3.335-2.838-2.061-2.837 2.061 1.083-3.335L32 74.883h3.507l1.084-3.336Z"/><path fill="url(#h)" d="m25.97 60.927 1.084 3.336h3.507l-2.837 2.061 1.083 3.336-2.837-2.06-2.838 2.061 1.084-3.336-2.838-2.061h3.508l1.084-3.336Z"/><path fill="url(#i)" d="m25.97 31.96 1.084 3.336h3.507l-2.837 2.062 1.083 3.336-2.837-2.062-2.838 2.062 1.084-3.336-2.838-2.062h3.508l1.084-3.336Z"/><path fill="url(#j)" d="m76.178 60.927 1.084 3.336h3.508l-2.838 2.061 1.084 3.336-2.838-2.061-2.838 2.061 1.084-3.336-2.837-2.061h3.507l1.084-3.336Z"/><path fill="url(#k)" d="m36.59 21.34 1.084 3.336h3.508l-2.838 2.062 1.084 3.335-2.838-2.061-2.837 2.061 1.083-3.335L32 24.675h3.507l1.084-3.336Z"/><path fill="url(#l)" d="m65.557 71.547 1.084 3.336h3.507l-2.837 2.062 1.084 3.335-2.838-2.061-2.838 2.061 1.084-3.335-2.837-2.062h3.507l1.084-3.336Z"/><path fill="url(#m)" d="M58.628 44.53H44.39a2.204 2.204 0 0 0-2.204 2.204v10.508c0 1.218.986 2.204 2.204 2.204h14.237a2.204 2.204 0 0 0 2.204-2.204V46.734a2.204 2.204 0 0 0-2.204-2.204Zm-6.166 7.65c.018.074.028.15.028.229v1.885a.99.99 0 0 1-.987.987.99.99 0 0 1-.987-.987v-1.885c0-.081.01-.16.029-.236a1.871 1.871 0 0 1 .964-3.477 1.873 1.873 0 0 1 .953 3.484Z"/><path fill="url(#n)" d="M53.712 35.58a6.222 6.222 0 0 0-2.154-.37c-.73-.001-1.549.114-2.253.37-3.28 1.194-4.472 4.139-4.308 8.038h2.724c-.153-2.687.54-4.497 2.237-5.27a3.746 3.746 0 0 1 3.101 0c1.697.773 2.39 2.583 2.238 5.27h2.723c.164-3.899-1.027-6.844-4.308-8.038Z"/><path fill="url(#o)" d="M42.872 68.529c-.549 0-1.05-.13-1.503-.39-.444-.27-.8-.632-1.07-1.085a3.129 3.129 0 0 1-.39-1.561c0-.607.13-1.137.39-1.59a2.82 2.82 0 0 1 1.084-1.07c.463-.25.979-.376 1.547-.376.395 0 .762.053 1.099.16.337.095.655.255.954.476a.482.482 0 0 1 .174.39.483.483 0 0 1-.13.333.404.404 0 0 1-.319.13.551.551 0 0 1-.289-.101 2.36 2.36 0 0 0-.723-.376 2.545 2.545 0 0 0-.751-.116c-.588 0-1.075.198-1.46.593-.376.386-.564.901-.564 1.547 0 .627.178 1.142.535 1.547.366.395.838.593 1.416.593.347 0 .65-.063.911-.188a1.74 1.74 0 0 0 .636-.477c.164-.203.256-.4.275-.593 0-.154-.077-.231-.231-.231h-1.027c-.318 0-.477-.15-.477-.449 0-.134.043-.24.13-.318a.503.503 0 0 1 .347-.115h1.648c.212 0 .366.048.463.144.096.087.145.26.145.52 0 .473-.121.907-.362 1.302a2.6 2.6 0 0 1-.983.954c-.424.231-.916.347-1.475.347Z"/><path fill="url(#p)" d="M47.545 68.384a.96.96 0 0 1-.578-.202c-.174-.135-.26-.328-.26-.578v-4.25c0-.222.072-.4.216-.535a.758.758 0 0 1 .535-.217h1.301c.578 0 1.084.12 1.518.361a2.44 2.44 0 0 1 1.027.998c.25.433.375.954.375 1.56a3.03 3.03 0 0 1-.346 1.447 2.65 2.65 0 0 1-.94 1.04c-.395.251-.853.376-1.374.376h-1.474Zm.593-.896h.636c.626 0 1.103-.164 1.43-.492.329-.337.488-.828.478-1.474-.01-.656-.178-1.157-.506-1.504s-.8-.52-1.417-.52h-.607c-.29 0-.434.145-.434.434v3.122c0 .29.14.434.42.434Z"/><path fill="url(#q)" d="M53.198 68.529a.506.506 0 0 1-.347-.145.397.397 0 0 1-.159-.318v-4.67c0-.26.082-.457.246-.592a.843.843 0 0 1 .55-.202h1.532c.328 0 .631.067.91.202.29.125.521.313.695.564.173.25.26.559.26.925 0 .569-.183 1.022-.55 1.359-.356.337-.79.506-1.3.506h-.97c-.24 0-.36.145-.36.434v1.474a.397.397 0 0 1-.16.318.473.473 0 0 1-.347.145Zm.795-3.238h.882c.241 0 .473-.073.694-.217.232-.145.347-.395.347-.752 0-.28-.106-.487-.318-.622a1.12 1.12 0 0 0-.665-.217h-.896c-.241 0-.362.116-.362.347v1.07c0 .26.106.39.319.39Z"/><path fill="url(#r)" d="M58.394 68.529a.506.506 0 0 1-.347-.145.412.412 0 0 1-.145-.318v-4.67c0-.26.087-.457.26-.592a.96.96 0 0 1 .578-.202h1.417c.328 0 .632.072.911.217.29.134.52.332.694.592.173.25.26.554.26.911 0 .337-.101.66-.303.969a1.44 1.44 0 0 1-.752.607c.135.058.26.154.376.289.125.125.236.294.332.506l.52 1.17c.03.059.044.121.044.189 0 .173-.058.299-.173.376a.557.557 0 0 1-.333.115.409.409 0 0 1-.405-.274l-.593-1.388c-.125-.28-.284-.472-.477-.578a1.298 1.298 0 0 0-.636-.16h-.361c-.25 0-.376.145-.376.434v1.49a.412.412 0 0 1-.145.317.473.473 0 0 1-.346.145Zm.81-3.253h.809c.24 0 .472-.077.694-.231a.8.8 0 0 0 .347-.694c0-.29-.107-.506-.319-.65a1.12 1.12 0 0 0-.664-.218h-.825c-.24 0-.361.12-.361.362v1.099c0 .221.106.332.318.332Z"/><defs><linearGradient id="a" x1="47.404" x2="55.953" y1="18.091" y2="19.389" gradientUnits="userSpaceOnUse"><stop stop-color="#323232"/><stop offset="1"/></linearGradient><linearGradient id="b" x1="47.404" x2="55.953" y1="76.024" y2="77.321" gradientUnits="userSpaceOnUse"><stop stop-color="#323232"/><stop offset="1"/></linearGradient><linearGradient id="c" x1="76.37" x2="84.92" y1="47.057" y2="48.354" gradientUnits="userSpaceOnUse"><stop stop-color="#323232"/><stop offset="1"/></linearGradient><linearGradient id="d" x1="18.437" x2="26.987" y1="47.057" y2="48.354" gradientUnits="userSpaceOnUse"><stop stop-color="#323232"/><stop offset="1"/></linearGradient><linearGradient id="e" x1="72.508" x2="81.058" y1="32.574" y2="33.872" gradientUnits="userSpaceOnUse"><stop stop-color="#323232"/><stop offset="1"/></linearGradient><linearGradient id="f" x1="61.887" x2="70.437" y1="21.954" y2="23.252" gradientUnits="userSpaceOnUse"><stop stop-color="#323232"/><stop offset="1"/></linearGradient><linearGradient id="g" x1="32.92" x2="41.47" y1="72.161" y2="73.459" gradientUnits="userSpaceOnUse"><stop stop-color="#323232"/><stop offset="1"/></linearGradient><linearGradient id="h" x1="22.3" x2="30.849" y1="61.541" y2="62.839" gradientUnits="userSpaceOnUse"><stop stop-color="#323232"/><stop offset="1"/></linearGradient><linearGradient id="i" x1="22.3" x2="30.849" y1="32.574" y2="33.872" gradientUnits="userSpaceOnUse"><stop stop-color="#323232"/><stop offset="1"/></linearGradient><linearGradient id="j" x1="72.508" x2="81.058" y1="61.541" y2="62.839" gradientUnits="userSpaceOnUse"><stop stop-color="#323232"/><stop offset="1"/></linearGradient><linearGradient id="k" x1="32.92" x2="41.47" y1="21.954" y2="23.252" gradientUnits="userSpaceOnUse"><stop stop-color="#323232"/><stop offset="1"/></linearGradient><linearGradient id="l" x1="61.887" x2="70.437" y1="72.161" y2="73.459" gradientUnits="userSpaceOnUse"><stop stop-color="#323232"/><stop offset="1"/></linearGradient><linearGradient id="m" x1="44.058" x2="61.257" y1="45.58" y2="48.683" gradientUnits="userSpaceOnUse"><stop stop-color="#323232"/><stop offset="1"/></linearGradient><linearGradient id="n" x1="46.292" x2="58.13" y1="35.801" y2="38.454" gradientUnits="userSpaceOnUse"><stop stop-color="#323232"/><stop offset="1"/></linearGradient><linearGradient id="o" x1="42.149" x2="58.76" y1="62.885" y2="71.682" gradientUnits="userSpaceOnUse"><stop stop-color="#323232"/><stop offset="1"/></linearGradient><linearGradient id="p" x1="42.149" x2="58.76" y1="62.885" y2="71.682" gradientUnits="userSpaceOnUse"><stop stop-color="#323232"/><stop offset="1"/></linearGradient><linearGradient id="q" x1="42.149" x2="58.76" y1="62.885" y2="71.682" gradientUnits="userSpaceOnUse"><stop stop-color="#323232"/><stop offset="1"/></linearGradient><linearGradient id="r" x1="42.149" x2="58.76" y1="62.885" y2="71.682" gradientUnits="userSpaceOnUse"><stop stop-color="#323232"/><stop offset="1"/></linearGradient></defs></svg>