<svg xmlns="http://www.w3.org/2000/svg" width="100" height="100" fill="none"><circle cx="50" cy="50" r="49.444" stroke="#fff" stroke-width="1.111"/><circle cx="50" cy="50" r="44.444" fill="#fff"/><circle cx="50" cy="50" r="38.333" fill="#fff" stroke="#DDE5ED" stroke-width="1.111"/><mask id="b" width="78" height="78" x="11" y="11" maskUnits="userSpaceOnUse" style="mask-type:alpha"><path fill="#D9D9D9" stroke="url(#a)" stroke-width=".195" d="M11.621 11.621h76.758v76.758H11.621z"/></mask><g mask="url(#b)"><mask id="d" width="64" height="64" x="18" y="18" maskUnits="userSpaceOnUse" style="mask-type:alpha"><circle cx="50" cy="50" r="31.25" fill="#D9D9D9" stroke="url(#c)" stroke-width=".781"/></mask><g mask="url(#d)"><path stroke="url(#e)" stroke-width=".781" d="M100 50c0 10.355-22.386 18.75-50 18.75S0 60.355 0 50m100 0c0-10.355-22.386-18.75-50-18.75S0 39.645 0 50m100 0H0"/></g><circle cx="50" cy="50" r="31.25" stroke="url(#f)" stroke-width=".781"/><path stroke="url(#g)" stroke-width=".781" d="M50 81.25c-17.259 0-31.25-13.991-31.25-31.25S32.741 18.75 50 18.75"/><path stroke="url(#h)" stroke-width=".781" d="M50 81.25c-10.355 0-18.75-13.991-18.75-31.25S39.645 18.75 50 18.75"/><path stroke="url(#i)" stroke-width=".781" d="M49.688 81.25C49.86 81.25 50 67.259 50 50s-.14-31.25-.313-31.25"/><path stroke="url(#j)" stroke-width=".781" d="M49.688 81.25c10.355 0 18.75-13.991 18.75-31.25s-8.395-31.25-18.75-31.25"/></g><mask id="l" width="50" height="26" x="25.367" y="33.492" fill="#000" maskUnits="userSpaceOnUse"><path fill="#fff" d="M25.367 33.492h50v26h-50z"/><path d="M32.47 36.038v20.454h-4.325V36.038h4.325Zm14.654 5.882c-.08-.805-.423-1.431-1.029-1.877-.606-.447-1.428-.67-2.467-.67-.706 0-1.301.1-1.788.3-.486.193-.859.463-1.118.81-.253.345-.38.738-.38 1.178-.013.366.064.685.23.959.173.272.41.509.71.709.299.193.645.362 1.038.509.393.14.812.26 1.258.36l1.838.439c.892.2 1.711.466 2.457.799a7.466 7.466 0 0 1 1.938 1.228 5.106 5.106 0 0 1 1.268 1.718c.306.66.463 1.415.47 2.268-.007 1.251-.327 2.337-.96 3.255-.625.913-1.53 1.622-2.716 2.128-1.179.5-2.6.749-4.265.749-1.651 0-3.09-.253-4.314-.76-1.219-.505-2.171-1.254-2.857-2.246-.679-1-1.035-2.234-1.069-3.706h4.185c.047.686.243 1.259.59 1.718.352.453.822.796 1.408 1.029.592.226 1.262.34 2.007.34.733 0 1.369-.107 1.908-.32.546-.213.969-.51 1.268-.89.3-.379.45-.815.45-1.308 0-.459-.137-.845-.41-1.158-.266-.313-.659-.58-1.178-.8a11.995 11.995 0 0 0-1.888-.598l-2.227-.56c-1.725-.42-3.086-1.075-4.085-1.967-.999-.892-1.495-2.094-1.488-3.606-.007-1.238.323-2.32.989-3.246.672-.925 1.594-1.648 2.766-2.167 1.172-.52 2.504-.779 3.995-.779 1.518 0 2.843.26 3.975.779 1.139.52 2.024 1.242 2.657 2.167.633.926.959 1.998.979 3.216h-4.145Zm26.13 4.345c0 2.23-.423 4.128-1.269 5.693-.838 1.565-1.984 2.76-3.435 3.585-1.445.82-3.07 1.229-4.874 1.229-1.818 0-3.45-.413-4.894-1.239-1.445-.825-2.587-2.02-3.426-3.585s-1.258-3.46-1.258-5.683c0-2.23.42-4.128 1.258-5.693.84-1.565 1.981-2.757 3.426-3.576 1.445-.825 3.076-1.238 4.894-1.238 1.804 0 3.429.413 4.874 1.238 1.451.82 2.597 2.011 3.435 3.576.846 1.565 1.269 3.462 1.269 5.693Zm-4.385 0c0-1.445-.216-2.663-.649-3.656-.426-.992-1.029-1.744-1.808-2.257-.779-.512-1.69-.769-2.736-.769-1.046 0-1.958.257-2.737.77-.779.512-1.385 1.264-1.818 2.256-.426.993-.639 2.211-.639 3.656 0 1.445.213 2.663.64 3.655.432.992 1.038 1.745 1.817 2.258.78.512 1.691.769 2.737.769 1.045 0 1.957-.257 2.736-.77.78-.512 1.382-1.264 1.808-2.257.433-.992.65-2.21.65-3.655Z"/></mask><path fill="url(#k)" d="M32.47 36.038v20.454h-4.325V36.038h4.325Zm14.654 5.882c-.08-.805-.423-1.431-1.029-1.877-.606-.447-1.428-.67-2.467-.67-.706 0-1.301.1-1.788.3-.486.193-.859.463-1.118.81-.253.345-.38.738-.38 1.178-.013.366.064.685.23.959.173.272.41.509.71.709.299.193.645.362 1.038.509.393.14.812.26 1.258.36l1.838.439c.892.2 1.711.466 2.457.799a7.466 7.466 0 0 1 1.938 1.228 5.106 5.106 0 0 1 1.268 1.718c.306.66.463 1.415.47 2.268-.007 1.251-.327 2.337-.96 3.255-.625.913-1.53 1.622-2.716 2.128-1.179.5-2.6.749-4.265.749-1.651 0-3.09-.253-4.314-.76-1.219-.505-2.171-1.254-2.857-2.246-.679-1-1.035-2.234-1.069-3.706h4.185c.047.686.243 1.259.59 1.718.352.453.822.796 1.408 1.029.592.226 1.262.34 2.007.34.733 0 1.369-.107 1.908-.32.546-.213.969-.51 1.268-.89.3-.379.45-.815.45-1.308 0-.459-.137-.845-.41-1.158-.266-.313-.659-.58-1.178-.8a11.995 11.995 0 0 0-1.888-.598l-2.227-.56c-1.725-.42-3.086-1.075-4.085-1.967-.999-.892-1.495-2.094-1.488-3.606-.007-1.238.323-2.32.989-3.246.672-.925 1.594-1.648 2.766-2.167 1.172-.52 2.504-.779 3.995-.779 1.518 0 2.843.26 3.975.779 1.139.52 2.024 1.242 2.657 2.167.633.926.959 1.998.979 3.216h-4.145Zm26.13 4.345c0 2.23-.423 4.128-1.269 5.693-.838 1.565-1.984 2.76-3.435 3.585-1.445.82-3.07 1.229-4.874 1.229-1.818 0-3.45-.413-4.894-1.239-1.445-.825-2.587-2.02-3.426-3.585s-1.258-3.46-1.258-5.683c0-2.23.42-4.128 1.258-5.693.84-1.565 1.981-2.757 3.426-3.576 1.445-.825 3.076-1.238 4.894-1.238 1.804 0 3.429.413 4.874 1.238 1.451.82 2.597 2.011 3.435 3.576.846 1.565 1.269 3.462 1.269 5.693Zm-4.385 0c0-1.445-.216-2.663-.649-3.656-.426-.992-1.029-1.744-1.808-2.257-.779-.512-1.69-.769-2.736-.769-1.046 0-1.958.257-2.737.77-.779.512-1.385 1.264-1.818 2.256-.426.993-.639 2.211-.639 3.656 0 1.445.213 2.663.64 3.655.432.992 1.038 1.745 1.817 2.258.78.512 1.691.769 2.737.769 1.045 0 1.957-.257 2.736-.77.78-.512 1.382-1.264 1.808-2.257.433-.992.65-2.21.65-3.655Z"/><path fill="#fff" d="M32.47 36.038h2v-2h-2v2Zm0 20.454v2h2v-2h-2Zm-4.325 0h-2v2h2v-2Zm0-20.454v-2h-2v2h2Zm4.325 0h-2v20.454h4V36.038h-2Zm0 20.454v-2h-4.325v4h4.325v-2Zm-4.325 0h2V36.038h-4v20.454h2Zm0-20.454v2h4.325v-4h-4.325v2Zm18.979 5.882-1.99.198.178 1.802h1.812v-2Zm-5.284-2.247.739 1.859.01-.004.012-.005-.76-1.85Zm-1.118.81-1.6-1.2-.008.009-.007.01 1.615 1.18Zm-.38 1.178 1.999.072.001-.036v-.036h-2Zm.23.959-1.708 1.04.01.016.009.014 1.689-1.07Zm.71.709-1.11 1.664.013.008.013.009 1.083-1.681Zm1.038.509-.699 1.874.014.005.014.005.67-1.884Zm1.258.36.465-1.946-.014-.003-.014-.003-.437 1.951Zm1.838.439-.465 1.945.014.004.014.003.437-1.952Zm2.457.799-.815 1.826.815-1.826Zm1.938 1.228 1.33-1.493-1.33 1.493Zm1.268 1.718-1.82.828.003.008.003.007 1.814-.843Zm.47 2.268 2 .01v-.026l-2 .016Zm-.96 3.255-1.647-1.134-.002.003 1.65 1.131Zm-2.716 2.128.78 1.841.005-.002-.785-1.84Zm-8.58-.01-.767 1.847.004.001.764-1.848Zm-2.856-2.247L34.783 54.9l.005.007.004.006 1.645-1.137Zm-1.069-3.706v-2h-2.045l.046 2.045 2-.045Zm4.185 0 1.996-.135-.127-1.865h-1.869v2Zm.59 1.718-1.598 1.204.01.013.01.012 1.578-1.229Zm1.408 1.029-.74 1.858.013.005.013.005.714-1.868Zm3.915.02-.727-1.863-.008.003.735 1.86Zm1.268-.89 1.57 1.24-1.57-1.24Zm.04-2.466-1.523 1.296.008.01.008.009 1.507-1.315Zm-1.178-.8-.788 1.84.008.003.78-1.842Zm-1.888-.598-.487 1.94.01.002.008.002.47-1.944Zm-2.227-.56.487-1.94-.007-.001-.007-.002-.473 1.943Zm-4.085-1.967-1.333 1.491 1.333-1.491Zm-1.488-3.606 2 .01v-.02l-2 .01Zm.989-3.246-1.618-1.175-.006.007 1.624 1.168Zm10.736-2.167-.834 1.818.004.002.83-1.82Zm2.657 2.167-1.651 1.129 1.65-1.129Zm.979 3.216v2h2.033l-.034-2.032-2 .032Zm-4.145 0 1.99-.197c-.13-1.321-.733-2.481-1.833-3.29l-1.186 1.61-1.186 1.61c.113.083.196.175.225.465l1.99-.198Zm-1.029-1.877 1.186-1.61c-1.059-.78-2.346-1.06-3.653-1.06v4c.771 0 1.128.167 1.281.28l1.186-1.61Zm-2.467-.67v-2c-.882 0-1.753.124-2.548.45l.76 1.85.76 1.85c.178-.073.499-.15 1.028-.15v-2Zm-1.788.3-.738-1.859c-.757.301-1.457.771-1.98 1.468l1.6 1.2 1.6 1.2c.002-.002.012-.017.046-.041a.975.975 0 0 1 .21-.11l-.738-1.858Zm-1.118.81-1.615-1.18a3.946 3.946 0 0 0-.765 2.358h4l.001-.02-.002.009a.099.099 0 0 1-.006.014c-.002.004-.002.003.002-.002l-1.615-1.18Zm-.38 1.178-1.998-.073a3.68 3.68 0 0 0 .52 2.073l1.708-1.041 1.708-1.042a.47.47 0 0 1 .055.131c.008.035.005.047.006.024l-1.999-.072Zm.23.959-1.689 1.07c.339.535.783.966 1.289 1.303l1.11-1.664 1.109-1.665a.426.426 0 0 1-.13-.116l-1.689 1.072Zm.71.709-1.084 1.68c.44.284.918.515 1.423.703l.699-1.874.699-1.874a3.405 3.405 0 0 1-.654-.317L41.28 43.33Zm1.038.509-.67 1.884c.475.17.974.311 1.491.427l.437-1.952.437-1.951a8.76 8.76 0 0 1-1.025-.292l-.67 1.884Zm1.258.36-.465 1.945 1.838.44.465-1.946.465-1.945-1.838-.44-.465 1.945Zm1.838.439-.437 1.952c.778.174 1.468.4 2.079.673l.815-1.826.815-1.826a14.956 14.956 0 0 0-2.835-.925l-.437 1.952Zm2.457.799-.815 1.826c.58.26 1.047.562 1.423.896l1.33-1.494 1.33-1.493a9.46 9.46 0 0 0-2.453-1.561l-.815 1.826Zm1.938 1.228-1.33 1.494c.34.303.594.65.777 1.052l1.82-.828 1.822-.827a7.106 7.106 0 0 0-1.76-2.384l-1.33 1.493Zm1.268 1.718-1.814.843c.167.359.279.825.283 1.44l2-.015 2-.016c-.008-1.09-.21-2.135-.655-3.095l-1.814.843Zm.47 2.268-2-.011c-.005.901-.23 1.584-.607 2.132l1.648 1.134 1.647 1.134c.887-1.289 1.303-2.777 1.311-4.379l-2-.01Zm-.96 3.255-1.649-1.131c-.377.55-.958 1.037-1.852 1.42l.785 1.839.785 1.84c1.476-.631 2.706-1.562 3.58-2.836l-1.648-1.132Zm-2.716 2.128-.78-1.842c-.87.369-2.011.59-3.485.59v4c1.856 0 3.558-.276 5.045-.907l-.78-1.841Zm-4.265.749v-2c-1.451 0-2.62-.223-3.55-.608l-.764 1.849-.764 1.848c1.519.628 3.227.91 5.078.91v-2Zm-4.314-.76.767-1.846c-.899-.373-1.532-.891-1.979-1.538l-1.645 1.138-1.645 1.137c.925 1.338 2.196 2.318 3.734 2.957l.768-1.847Zm-2.857-2.246 1.654-1.125c-.419-.616-.697-1.455-.723-2.626l-2 .045-1.999.045c.04 1.773.475 3.404 1.414 4.785l1.654-1.124Zm-1.069-3.706v2h4.185v-4H35.37v2Zm4.185 0-1.995.136c.068.996.365 1.96.987 2.786l1.597-1.204 1.598-1.204c-.07-.093-.166-.274-.191-.65l-1.996.136Zm.59 1.718-1.578 1.23c.593.76 1.364 1.306 2.247 1.657l.739-1.858.739-1.859c-.29-.115-.457-.254-.57-.4l-1.578 1.23Zm1.408 1.029-.714 1.868c.857.327 1.774.471 2.721.471v-4c-.544 0-.965-.082-1.294-.207l-.713 1.868Zm2.007.34v2c.92 0 1.817-.134 2.643-.46l-.735-1.86-.735-1.86c-.253.1-.628.18-1.173.18v2Zm1.908-.32.727 1.863c.807-.315 1.549-.8 2.111-1.513l-1.57-1.24-1.57-1.238c-.036.046-.14.153-.425.265l.727 1.863Zm1.268-.89 1.57 1.24c.584-.74.88-1.614.88-2.547h-4a.251.251 0 0 1-.003.04l-.001.006v.001a.174.174 0 0 1-.015.022l1.57 1.239Zm.45-1.308h2c0-.887-.277-1.756-.903-2.473l-1.507 1.315-1.507 1.315a.395.395 0 0 1-.071-.124c-.016-.046-.012-.063-.012-.032h2Zm-.41-1.158 1.523-1.296c-.529-.622-1.217-1.047-1.922-1.345l-.78 1.842-.779 1.842c.334.14.432.25.435.253l1.523-1.296Zm-1.178-.8.788-1.837a13.943 13.943 0 0 0-2.207-.706l-.469 1.945-.469 1.944c.674.162 1.19.33 1.569.493l.788-1.838Zm-1.888-.598.487-1.94-2.227-.56-.487 1.94-.487 1.94 2.227.56.487-1.94Zm-2.227-.56.473-1.943c-1.506-.366-2.539-.902-3.226-1.516l-1.332 1.492-1.333 1.491c1.311 1.171 3.001 1.947 4.945 2.42l.473-1.944Zm-4.085-1.967 1.332-1.492c-.514-.46-.825-1.084-.82-2.105l-2-.009-2-.009c-.009 2.003.672 3.781 2.155 5.106l1.333-1.491Zm-1.488-3.606 2-.01c-.005-.855.215-1.515.612-2.068l-1.623-1.168-1.624-1.168c-.934 1.3-1.374 2.802-1.365 4.425l2-.01Zm.989-3.246 1.618 1.176c.44-.608 1.069-1.12 1.959-1.515l-.81-1.828-.811-1.828c-1.454.644-2.67 1.576-3.574 2.82l1.618 1.175Zm2.766-2.167.81 1.828c.879-.389 1.928-.607 3.185-.607v-4c-1.725 0-3.34.301-4.805.95l.81 1.829Zm3.995-.779v2c1.292 0 2.322.22 3.141.597l.834-1.818.834-1.818c-1.444-.663-3.065-.961-4.809-.961v2Zm3.975.779-.83 1.82c.847.386 1.432.885 1.836 1.476l1.65-1.129 1.652-1.128c-.861-1.26-2.047-2.206-3.478-2.859l-.83 1.82Zm2.657 2.167-1.651 1.129c.392.574.616 1.258.63 2.12l2-.033 2-.032c-.026-1.575-.455-3.035-1.328-4.312l-1.651 1.128Zm.979 3.216v-2h-4.145v4h4.145v-2Zm20.716 10.038-1.76-.951-.002.006 1.762.945Zm-3.435 3.585.986 1.74.002-.001-.988-1.739Zm-9.768-.01.992-1.736-.992 1.736Zm-3.426-3.585-1.763.945 1.763-.945Zm0-11.376 1.763.945-1.763-.945Zm3.426-3.576.986 1.74.006-.003-.992-1.737Zm9.768 0-.993 1.737.01.005.983-1.742Zm3.435 3.576-1.762.945.003.006 1.76-.951Zm-3.765 2.037-1.838.79.005.01 1.833-.8Zm-1.808-2.257-1.1 1.67 1.1-1.67Zm-5.473 0 1.1 1.67-1.1-1.67Zm-1.818 2.258-1.833-.8-.004.01 1.837.79Zm0 7.31-1.837.79.004.01 1.833-.8Zm1.818 2.258 1.1-1.671-1.1 1.67Zm5.473 0-1.1-1.671 1.1 1.67Zm1.808-2.258-1.833-.8-.005.011 1.838.79Zm5.034-3.655h-2c0 1.981-.376 3.534-1.028 4.742l1.76.95 1.759.952c1.039-1.922 1.509-4.164 1.509-6.644h-2Zm-1.269 5.693-1.762-.945c-.673 1.254-1.56 2.165-2.662 2.792l.989 1.738.989 1.739c1.8-1.024 3.204-2.504 4.209-4.38l-1.763-.944Zm-3.435 3.585-.986-1.74c-1.119.634-2.399.969-3.888.969v4c2.12 0 4.089-.485 5.86-1.489l-.986-1.74Zm-4.874 1.229v-2c-1.503 0-2.787-.338-3.902-.975l-.992 1.736-.992 1.737c1.774 1.014 3.753 1.502 5.886 1.502v-2Zm-4.894-1.239.992-1.736c-1.097-.627-1.981-1.537-2.655-2.794l-1.763.945-1.763.945c1.004 1.872 2.404 3.352 4.197 4.377l.992-1.737Zm-3.426-3.585 1.763-.945c-.649-1.21-1.021-2.762-1.021-4.738h-4c0 2.472.466 4.708 1.495 6.628l1.763-.945Zm-1.258-5.683h2c0-1.984.373-3.539 1.02-4.748l-1.762-.945-1.763-.945c-1.03 1.92-1.495 4.16-1.495 6.638h2Zm1.258-5.693 1.763.945c.673-1.256 1.556-2.16 2.65-2.78l-.987-1.74-.986-1.74c-1.797 1.018-3.198 2.496-4.203 4.37l1.763.945Zm3.426-3.576.992 1.737c1.115-.637 2.399-.975 3.902-.975v-4c-2.133 0-4.112.488-5.886 1.502l.992 1.736Zm4.894-1.238v2c1.486 0 2.764.336 3.881.975l.993-1.737.992-1.736c-1.772-1.013-3.744-1.502-5.866-1.502v2Zm4.874 1.238-.983 1.742c1.1.62 1.984 1.526 2.656 2.78l1.762-.946 1.763-.945c-1.006-1.876-2.412-3.355-4.216-4.372l-.982 1.741Zm3.435 3.576-1.76.95c.654 1.208 1.029 2.762 1.029 4.743h4c0-2.48-.47-4.722-1.51-6.644l-1.759.951Zm-3.116 5.693h2c0-1.633-.243-3.142-.816-4.455l-1.833.8-1.833.8c.293.67.482 1.598.482 2.855h2Zm-.649-3.656 1.838-.789c-.556-1.294-1.391-2.378-2.546-3.138l-1.1 1.67-1.1 1.67c.404.266.774.686 1.07 1.377l1.838-.79Zm-1.808-2.257 1.1-1.67c-1.144-.753-2.449-1.099-3.836-1.099v4c.703 0 1.223.168 1.637.44l1.1-1.67Zm-2.736-.769v-2c-1.388 0-2.692.346-3.836 1.099l1.1 1.67 1.099 1.67c.414-.271.933-.439 1.637-.439v-2Zm-2.737.77-1.1-1.671c-1.151.758-1.988 1.839-2.55 3.128l1.832.8 1.834.8c.303-.696.678-1.12 1.084-1.387l-1.1-1.67Zm-1.818 2.256-1.837-.789c-.563 1.31-.802 2.815-.802 4.445h4c0-1.26.188-2.193.477-2.866l-1.838-.79Zm-.639 3.656h-2c0 1.63.239 3.134.802 4.445l1.837-.79 1.838-.789c-.29-.674-.477-1.606-.477-2.866h-2Zm.64 3.655-1.834.8c.563 1.29 1.4 2.37 2.552 3.128l1.1-1.67 1.099-1.671c-.406-.267-.781-.691-1.084-1.386l-1.834.8Zm1.817 2.258-1.1 1.67c1.145.753 2.45 1.099 3.837 1.099v-4c-.704 0-1.223-.168-1.637-.44l-1.1 1.67Zm2.737.769v2c1.387 0 2.692-.346 3.836-1.099l-1.1-1.67-1.1-1.671c-.413.272-.933.44-1.636.44v2Zm2.736-.77 1.1 1.671c1.155-.76 1.99-1.845 2.546-3.138l-1.838-.79-1.838-.789c-.296.69-.666 1.11-1.07 1.376l1.1 1.67Zm1.808-2.257 1.833.8c.573-1.314.816-2.822.816-4.455h-4c0 1.257-.19 2.185-.482 2.856l1.833.8Z" mask="url(#l)"/><mask id="n" width="41" height="15" x="29.25" y="58.984" fill="#000" maskUnits="userSpaceOnUse"><path fill="#fff" d="M29.25 58.984h41v15h-41z"/><path d="M32.058 70.984v-1.19l3.156-3.093c.302-.305.553-.576.755-.813.2-.236.352-.466.452-.688a1.7 1.7 0 0 0 .151-.71c0-.287-.065-.532-.195-.737a1.299 1.299 0 0 0-.537-.479 1.732 1.732 0 0 0-.777-.169c-.299 0-.56.062-.786.187-.225.121-.4.294-.523.52a1.668 1.668 0 0 0-.182.803h-1.567c0-.578.131-1.08.395-1.505a2.666 2.666 0 0 1 1.087-.99c.465-.234.997-.35 1.598-.35.61 0 1.145.113 1.607.341.462.228.82.54 1.074.937.258.396.387.849.387 1.358 0 .34-.066.675-.196 1.003-.13.329-.36.693-.688 1.092-.325.4-.783.883-1.371 1.452l-1.567 1.593v.062h3.96v1.376h-6.233Zm8.096 0 3.867-7.652v-.063h-4.488v-1.375h6.192V63.3l-3.861 7.683h-1.71Zm10.169.174c-.731 0-1.358-.186-1.882-.555-.521-.373-.922-.91-1.203-1.612-.278-.704-.417-1.552-.417-2.543.003-.992.143-1.835.421-2.53.282-.699.682-1.231 1.203-1.598.524-.367 1.15-.55 1.878-.55s1.354.183 1.878.55c.523.367.924.9 1.203 1.598.28.698.421 1.541.421 2.53 0 .994-.14 1.843-.422 2.548-.278.701-.679 1.237-1.202 1.607-.521.37-1.147.555-1.878.555Zm0-1.39c.568 0 1.016-.28 1.345-.839.331-.562.497-1.39.497-2.481 0-.722-.075-1.329-.226-1.82-.151-.491-.364-.861-.64-1.11a1.4 1.4 0 0 0-.976-.377c-.565 0-1.012.28-1.34.843-.33.56-.495 1.38-.498 2.464-.003.725.07 1.334.218 1.829.15.494.364.867.639 1.118.275.249.602.373.98.373Zm8.337 1.39c-.73 0-1.358-.186-1.882-.555-.52-.373-.922-.91-1.203-1.612-.278-.704-.417-1.552-.417-2.543.003-.992.144-1.835.422-2.53.28-.699.682-1.231 1.203-1.598.523-.367 1.15-.55 1.877-.55.728 0 1.354.183 1.878.55.524.367.925.9 1.203 1.598.281.698.422 1.541.422 2.53 0 .994-.14 1.843-.422 2.548-.278.701-.68 1.237-1.203 1.607-.52.37-1.147.555-1.878.555Zm0-1.39c.569 0 1.017-.28 1.345-.839.332-.562.497-1.39.497-2.481 0-.722-.075-1.329-.226-1.82-.15-.491-.364-.861-.64-1.11a1.4 1.4 0 0 0-.976-.377c-.565 0-1.012.28-1.34.843-.329.56-.494 1.38-.497 2.464-.003.725.07 1.334.217 1.829.151.494.364.867.64 1.118.275.249.602.373.98.373Zm8.675-7.874v9.09h-1.647v-7.488h-.053l-2.126 1.358v-1.509l2.26-1.451h1.566Z"/></mask><path fill="url(#m)" d="M32.058 70.984v-1.19l3.156-3.093c.302-.305.553-.576.755-.813.2-.236.352-.466.452-.688a1.7 1.7 0 0 0 .151-.71c0-.287-.065-.532-.195-.737a1.299 1.299 0 0 0-.537-.479 1.732 1.732 0 0 0-.777-.169c-.299 0-.56.062-.786.187-.225.121-.4.294-.523.52a1.668 1.668 0 0 0-.182.803h-1.567c0-.578.131-1.08.395-1.505a2.666 2.666 0 0 1 1.087-.99c.465-.234.997-.35 1.598-.35.61 0 1.145.113 1.607.341.462.228.82.54 1.074.937.258.396.387.849.387 1.358 0 .34-.066.675-.196 1.003-.13.329-.36.693-.688 1.092-.325.4-.783.883-1.371 1.452l-1.567 1.593v.062h3.96v1.376h-6.233Zm8.096 0 3.867-7.652v-.063h-4.488v-1.375h6.192V63.3l-3.861 7.683h-1.71Zm10.169.174c-.731 0-1.358-.186-1.882-.555-.521-.373-.922-.91-1.203-1.612-.278-.704-.417-1.552-.417-2.543.003-.992.143-1.835.421-2.53.282-.699.682-1.231 1.203-1.598.524-.367 1.15-.55 1.878-.55s1.354.183 1.878.55c.523.367.924.9 1.203 1.598.28.698.421 1.541.421 2.53 0 .994-.14 1.843-.422 2.548-.278.701-.679 1.237-1.202 1.607-.521.37-1.147.555-1.878.555Zm0-1.39c.568 0 1.016-.28 1.345-.839.331-.562.497-1.39.497-2.481 0-.722-.075-1.329-.226-1.82-.151-.491-.364-.861-.64-1.11a1.4 1.4 0 0 0-.976-.377c-.565 0-1.012.28-1.34.843-.33.56-.495 1.38-.498 2.464-.003.725.07 1.334.218 1.829.15.494.364.867.639 1.118.275.249.602.373.98.373Zm8.337 1.39c-.73 0-1.358-.186-1.882-.555-.52-.373-.922-.91-1.203-1.612-.278-.704-.417-1.552-.417-2.543.003-.992.144-1.835.422-2.53.28-.699.682-1.231 1.203-1.598.523-.367 1.15-.55 1.877-.55.728 0 1.354.183 1.878.55.524.367.925.9 1.203 1.598.281.698.422 1.541.422 2.53 0 .994-.14 1.843-.422 2.548-.278.701-.68 1.237-1.203 1.607-.52.37-1.147.555-1.878.555Zm0-1.39c.569 0 1.017-.28 1.345-.839.332-.562.497-1.39.497-2.481 0-.722-.075-1.329-.226-1.82-.15-.491-.364-.861-.64-1.11a1.4 1.4 0 0 0-.976-.377c-.565 0-1.012.28-1.34.843-.329.56-.494 1.38-.497 2.464-.003.725.07 1.334.217 1.829.151.494.364.867.64 1.118.275.249.602.373.98.373Zm8.675-7.874v9.09h-1.647v-7.488h-.053l-2.126 1.358v-1.509l2.26-1.451h1.566Z"/><path fill="#fff" d="M32.058 70.984h-2v2h2v-2Zm0-1.19-1.4-1.427-.6.588v.84h2Zm3.156-3.093 1.4 1.428.01-.01.011-.01-1.421-1.408Zm1.207-1.5 1.822.825-1.822-.825Zm-.044-1.448-1.693 1.065.007.01 1.686-1.075Zm-.537-.479-.885 1.793.885-1.793Zm-1.563.018.95 1.76.009-.005.009-.005-.968-1.75Zm-.523.52-1.75-.968-.006.009-.005.008 1.76.95Zm-.182.803v2h2v-2h-2Zm-1.567 0h-2v2h2v-2Zm.395-1.505 1.7 1.05-1.7-1.05Zm1.087-.99-.899-1.787-.004.003.903 1.784Zm3.205-.009.885-1.793-.885 1.793Zm1.074.937-1.683 1.08.006.009 1.677-1.09Zm.191 2.361-1.859-.737 1.86.737Zm-.688 1.092-1.545-1.27-.005.007 1.55 1.263Zm-1.371 1.452-1.39-1.44-.018.019-.019.018 1.427 1.403Zm-1.567 1.593-1.427-1.402-.573.584v.818h2Zm0 .062h-2v2h2v-2Zm3.96 0h2v-2h-2v2Zm0 1.376v2h2v-2h-2Zm-6.233 0h2v-1.19h-4v1.19h2Zm0-1.19 1.4 1.429 3.156-3.094-1.4-1.428-1.4-1.428-3.156 3.094 1.4 1.428Zm3.156-3.093 1.421 1.407c.325-.328.614-.638.858-.924l-1.524-1.296-1.524-1.295c-.159.187-.374.42-.652.7l1.421 1.408Zm.755-.813 1.523 1.296c.29-.342.556-.727.75-1.158l-1.82-.825-1.822-.826a1.087 1.087 0 0 1-.155.218l1.524 1.295Zm.452-.688 1.822.826c.222-.49.33-1.009.33-1.536h-4c0-.008 0-.026.005-.05a.327.327 0 0 1 .022-.065l1.821.826Zm.151-.71h2c0-.596-.138-1.231-.509-1.812l-1.686 1.075-1.686 1.076a.813.813 0 0 1-.1-.226.467.467 0 0 1-.019-.113h2Zm-.195-.737 1.693-1.064a3.298 3.298 0 0 0-1.345-1.209l-.885 1.794-.885 1.793a.723.723 0 0 1-.271-.25l1.693-1.064Zm-.537-.479.885-1.794a3.728 3.728 0 0 0-1.662-.375v4c.016 0 .01.002-.013-.003a.427.427 0 0 1-.095-.035l.885-1.793Zm-.777-.169v-2c-.582 0-1.187.123-1.753.436l.967 1.75.968 1.751a.566.566 0 0 1-.14.056c-.037.008-.053.007-.042.007v-2Zm-.786.187-.95-1.76a3.283 3.283 0 0 0-1.324 1.312l1.75.967 1.751.967a.693.693 0 0 1-.277.274l-.95-1.76Zm-.523.52-1.76-.95a3.662 3.662 0 0 0-.422 1.753h4c0-.05.008.022-.058.146l-1.76-.95Zm-.182.803v-2h-1.567v4h1.567v-2Zm-1.567 0h2c0-.264.056-.39.096-.454L32.4 63.11l-1.702-1.052c-.486.788-.693 1.666-.693 2.557h2Zm.395-1.505 1.7 1.05a.669.669 0 0 1 .29-.257l-.904-1.784-.903-1.784a4.666 4.666 0 0 0-1.886 1.722L32.4 63.11Zm1.087-.99.9 1.786c.145-.073.361-.137.698-.137v-4c-.864 0-1.713.17-2.497.564l.9 1.787Zm1.598-.35v2c.359 0 .582.065.722.134l.885-1.793.885-1.793c-.783-.387-1.631-.549-2.492-.549v2Zm1.607.341-.885 1.793c.167.083.236.161.276.224l1.683-1.08 1.684-1.08a4.619 4.619 0 0 0-1.873-1.65l-.885 1.793Zm1.074.937-1.677 1.089c.03.047.064.115.064.269h4c0-.865-.225-1.702-.71-2.448l-1.677 1.09Zm.387 1.358h-2a.704.704 0 0 1-.055.266l1.86.737 1.858.737c.22-.554.337-1.138.337-1.74h-2Zm-.196 1.003-1.859-.737c-.027.069-.122.252-.374.559l1.545 1.27 1.545 1.27c.405-.492.77-1.037 1.002-1.625l-1.859-.737Zm-.688 1.092-1.55-1.263c-.255.312-.65.734-1.21 1.275l1.389 1.44 1.388 1.439a19.287 19.287 0 0 0 1.534-1.628l-1.55-1.263Zm-1.371 1.452L34.47 66.55l-1.566 1.594 1.426 1.402 1.426 1.402 1.567-1.593-1.426-1.402Zm-1.567 1.593h-2v.062h4v-.062h-2Zm0 .062v2h3.96v-4h-3.96v2Zm3.96 0h-2v1.376h4v-1.376h-2Zm0 1.376v-2h-6.233v4h6.232v-2Zm1.864 0-1.786-.901-1.466 2.901h3.252v-2Zm3.866-7.652 1.785.902.215-.426v-.476h-2Zm0-.063h2v-2h-2v2Zm-4.488 0h-2v2h2v-2Zm0-1.375v-2h-2v2h2Zm6.192 0h2v-2h-2v2Zm0 1.407 1.787.898.213-.424V63.3h-2Zm-3.861 7.683v2h1.233l.553-1.102-1.786-.898Zm-1.71 0 1.786.902 3.866-7.652-1.785-.902-1.785-.902-3.867 7.652 1.785.902Zm3.867-7.652h2v-.063h-4v.063h2Zm0-.063v-2h-4.488v4h4.488v-2Zm-4.488 0h2v-1.375h-4v1.376h2Zm0-1.375v2h6.192v-4h-6.192v2Zm6.192 0h-2V63.3h4v-1.407h-2Zm0 1.407-1.787-.898-3.861 7.683 1.787.898 1.787.898 3.861-7.683-1.787-.898Zm-3.861 7.683v-2h-1.71v4h1.71v-2Zm6.577-.381-1.164 1.626.01.007 1.154-1.633Zm-1.203-1.612-1.86.735.004.01 1.856-.745Zm-.417-2.543-2-.006v.006h2Zm.421-2.53-1.855-.747-.002.004 1.857.743Zm1.203-1.598-1.147-1.638-.005.003 1.152 1.635Zm3.756 0-1.148 1.638 1.148-1.638Zm1.203 1.598-1.859.74.003.007 1.855-.747Zm0 5.078-1.858-.742-.002.004 1.86.738ZM52.2 70.603l-1.154-1.634-.005.003 1.159 1.63Zm-.533-1.674-1.723-1.016-.002.003 1.725 1.013Zm.27-4.301 1.912-.588-1.911.588Zm-.639-1.11-1.349 1.476.009.008 1.34-1.484Zm-2.317.466 1.725 1.013.002-.004-1.727-1.009Zm-.497 2.464 2 .008v-.003l-2-.005Zm.218 1.829-1.916.573.003.01 1.913-.583Zm.639 1.118-1.35 1.477.01.007 1.34-1.484Zm.98 1.763v-2c-.377 0-.587-.09-.727-.19l-1.154 1.635-1.154 1.633c.907.641 1.952.921 3.036.921v-2Zm-1.881-.555 1.164-1.627c-.159-.113-.346-.317-.51-.729l-1.857.744-1.856.744c.397.991 1.012 1.862 1.895 2.494l1.164-1.626Zm-1.203-1.612 1.86-.734c-.162-.41-.277-.996-.277-1.81h-4c0 1.17.162 2.28.557 3.279l1.86-.735Zm-.417-2.543 2 .006c.002-.816.119-1.395.278-1.794l-1.857-.742-1.857-.743c-.396.992-.56 2.1-.564 3.267l2 .006Zm.421-2.53 1.856.747c.163-.407.347-.603.5-.71l-1.153-1.635-1.152-1.635c-.89.626-1.508 1.496-1.906 2.486l1.855.747Zm1.203-1.598 1.148 1.638c.142-.1.354-.189.73-.189v-4c-1.08 0-2.12.278-3.025.913l1.147 1.638Zm1.878-.55v2c.376 0 .588.088.73.188L52.2 62.32l1.147-1.638c-.905-.635-1.945-.913-3.025-.913v2Zm1.878.55-1.148 1.638c.152.106.333.299.492.7l1.858-.74 1.859-.74c-.397-.996-1.018-1.869-1.914-2.496L52.2 62.32Zm1.203 1.598-1.856.747c.161.399.277.974.277 1.783h4c0-1.168-.165-2.28-.566-3.277l-1.855.747Zm.421 2.53h-2c0 .815-.116 1.399-.279 1.806l1.858.742 1.857.741c.4-1 .564-2.116.564-3.29h-2Zm-.422 2.548-1.859-.738c-.16.406-.343.602-.497.71l1.154 1.635 1.153 1.633c.894-.63 1.513-1.506 1.909-2.503l-1.86-.737ZM52.2 70.603l-1.159-1.631c-.135.096-.341.186-.72.186v4c1.085 0 2.13-.281 3.037-.925l-1.158-1.63Zm-1.878-.835v2c1.39 0 2.443-.759 3.07-1.826l-1.725-1.013-1.725-1.013c-.037.064-.021.011.084-.055a.65.65 0 0 1 .17-.074.493.493 0 0 1 .126-.019v2Zm1.345-.839 1.723 1.016c.597-1.013.774-2.261.774-3.497h-4c0 .948-.154 1.354-.22 1.466l1.723 1.015Zm.497-2.481h2c0-.847-.087-1.666-.315-2.407l-1.911.587-1.912.587c.074.242.138.636.138 1.233h2Zm-.226-1.82 1.911-.588c-.217-.709-.583-1.44-1.21-2.006l-1.34 1.484-1.341 1.484c-.04-.035-.044-.052-.026-.022.018.032.054.105.094.235l1.912-.587Zm-.64-1.11 1.35-1.476a3.399 3.399 0 0 0-2.326-.901v4a.56.56 0 0 1-.195-.04.58.58 0 0 1-.178-.107l1.35-1.476Zm-.976-.377v-2c-1.396 0-2.446.77-3.068 1.834l1.727 1.01 1.727 1.008c.04-.067.025-.015-.08.052a.656.656 0 0 1-.306.096v-2Zm-1.34.843-1.725-1.013c-.59 1.006-.77 2.244-.773 3.471l2 .006 2 .005c.003-.939.156-1.343.222-1.456l-1.725-1.013Zm-.498 2.464-2-.008c-.003.849.08 1.668.302 2.41l1.916-.573 1.916-.574c-.074-.246-.136-.646-.134-1.247l-2-.008Zm.218 1.829-1.913.584c.217.71.58 1.442 1.203 2.01l1.349-1.476 1.35-1.476c.036.034.039.049.02.016a1.225 1.225 0 0 1-.097-.243l-1.912.585Zm.639 1.118-1.34 1.484c.65.589 1.459.89 2.32.89v-4a.577.577 0 0 1 .36.143l-1.34 1.483Zm7.436 1.208-1.164 1.626.01.007 1.154-1.633Zm-1.203-1.612-1.86.735.004.01 1.856-.745Zm-.417-2.543-2-.006v.006h2Zm.422-2.53-1.856-.747-.001.004 1.857.743Zm1.203-1.598-1.148-1.638-.004.003 1.152 1.635Zm3.755 0-1.147 1.638 1.147-1.638Zm1.203 1.598-1.858.74.003.007 1.855-.747Zm0 5.078-1.858-.742-.001.004 1.859.738Zm-1.203 1.607-1.154-1.634-.004.003 1.158 1.63Zm-.533-1.674-1.723-1.016-.001.003 1.724 1.013Zm.271-4.301 1.912-.588-1.912.588Zm-.64-1.11-1.348 1.476.008.008 1.34-1.484Zm-2.316.466 1.724 1.013.003-.004-1.727-1.009Zm-.497 2.464 2 .008v-.003l-2-.005Zm.217 1.829-1.916.573.003.01 1.913-.583Zm.64 1.118-1.35 1.477.009.007 1.34-1.484Zm.98 1.763v-2c-.377 0-.588-.09-.728-.19l-1.154 1.635-1.154 1.633c.908.641 1.952.921 3.036.921v-2Zm-1.882-.555 1.165-1.627c-.16-.113-.346-.317-.511-.729l-1.857.744-1.856.744c.397.991 1.012 1.862 1.895 2.494l1.164-1.626Zm-1.203-1.612 1.86-.734c-.162-.41-.277-.996-.277-1.81h-4c0 1.17.163 2.28.557 3.279l1.86-.735Zm-.417-2.543 2 .006c.002-.816.12-1.395.279-1.794l-1.857-.742-1.857-.743c-.397.992-.562 2.1-.565 3.267l2 .006Zm.422-2.53 1.855.747c.164-.407.347-.603.5-.71l-1.152-1.635-1.152-1.635c-.89.626-1.508 1.496-1.907 2.486l1.856.747Zm1.203-1.598 1.147 1.638c.142-.1.354-.189.73-.189v-4c-1.08 0-2.12.278-3.025.913l1.148 1.638Zm1.877-.55v2c.377 0 .588.088.73.188l1.148-1.638 1.148-1.638c-.906-.635-1.946-.913-3.026-.913v2Zm1.878.55-1.147 1.638c.151.106.332.299.492.7l1.858-.74 1.858-.74c-.397-.996-1.018-1.869-1.913-2.496l-1.148 1.638Zm1.203 1.598-1.855.747c.16.399.277.974.277 1.783h4c0-1.168-.165-2.28-.567-3.277l-1.855.747Zm.422 2.53h-2c0 .815-.117 1.399-.28 1.806l1.858.742 1.857.741c.4-1 .565-2.116.565-3.29h-2Zm-.422 2.548-1.86-.738c-.16.406-.343.602-.497.71l1.154 1.635 1.154 1.633c.893-.63 1.513-1.506 1.908-2.503l-1.86-.737Zm-1.203 1.607-1.158-1.631c-.135.096-.342.186-.72.186v4c1.084 0 2.13-.281 3.036-.925l-1.158-1.63Zm-1.878-.835v2c1.39 0 2.443-.759 3.07-1.826l-1.725-1.013-1.724-1.013c-.038.064-.022.011.083-.055a.65.65 0 0 1 .17-.074.493.493 0 0 1 .126-.019v2Zm1.345-.839 1.723 1.016c.597-1.013.774-2.261.774-3.497h-4c0 .948-.154 1.354-.22 1.466l1.723 1.015Zm.497-2.481h2c0-.847-.086-1.666-.314-2.407l-1.912.587-1.912.587c.074.242.139.636.139 1.233h2Zm-.226-1.82 1.912-.588c-.218-.709-.583-1.44-1.21-2.006l-1.341 1.484-1.34 1.484c-.04-.035-.044-.052-.027-.022.018.032.054.105.094.235l1.912-.587Zm-.64-1.11 1.35-1.476a3.399 3.399 0 0 0-2.326-.901v4a.56.56 0 0 1-.194-.04.58.58 0 0 1-.178-.107l1.349-1.476Zm-.976-.377v-2c-1.396 0-2.445.77-3.067 1.834l1.727 1.01 1.727 1.008c.039-.067.025-.015-.08.052a.656.656 0 0 1-.307.096v-2Zm-1.34.843-1.725-1.013c-.59 1.006-.769 2.244-.772 3.471l2 .006 2 .005c.002-.939.155-1.343.221-1.456l-1.724-1.013Zm-.497 2.464-2-.008c-.004.849.079 1.668.301 2.41l1.916-.573 1.916-.574c-.074-.246-.136-.646-.133-1.247l-2-.008Zm.217 1.829-1.913.584c.217.71.58 1.442 1.203 2.01l1.35-1.476 1.349-1.476c.037.034.04.049.02.016a1.225 1.225 0 0 1-.096-.243l-1.913.585Zm.64 1.118-1.341 1.484a3.41 3.41 0 0 0 2.321.89v-4a.577.577 0 0 1 .36.143l-1.34 1.483Zm9.655-7.501h2v-2h-2v2Zm0 9.09v2h2v-2h-2Zm-1.647 0h-2v2h2v-2Zm0-7.488h2v-2h-2v2Zm-.053 0v-2h-.584l-.493.314 1.077 1.686Zm-2.126 1.358h-2v3.651l3.076-1.965-1.076-1.686Zm0-1.509-1.081-1.683-.92.59v1.093h2Zm2.26-1.451v-2h-.588l-.494.317 1.081 1.683Zm1.566 0h-2v9.09h4v-9.09h-2Zm0 9.09v-2h-1.647v4h1.647v-2Zm-1.647 0h2v-7.488h-4v7.488h2Zm0-7.488v-2h-.053v4h.053v-2Zm-.053 0-1.077-1.686-2.126 1.359 1.077 1.685 1.076 1.686 2.127-1.359-1.077-1.685Zm-2.126 1.358h2v-1.509h-4v1.51h2Zm0-1.509 1.08 1.683 2.26-1.452-1.08-1.682-1.082-1.683-2.26 1.451 1.082 1.683Zm2.26-1.451v2h1.566v-4h-1.567v2Z" mask="url(#n)"/><defs><linearGradient id="a" x1="35.536" x2="66.328" y1="13.92" y2="82.982" gradientUnits="userSpaceOnUse"><stop stop-color="#5F082F"/><stop offset="1" stop-color="#C51161"/></linearGradient><linearGradient id="c" x1="38.253" x2="63.261" y1="20.696" y2="76.787" gradientUnits="userSpaceOnUse"><stop stop-color="#5F082F"/><stop offset="1" stop-color="#C51161"/></linearGradient><linearGradient id="e" x1="10.034" x2="92.992" y1="33.888" y2="65.819" gradientUnits="userSpaceOnUse"><stop stop-color="#323232"/><stop offset="1"/></linearGradient><linearGradient id="f" x1="25.021" x2="83.336" y1="23.147" y2="31.564" gradientUnits="userSpaceOnUse"><stop stop-color="#323232"/><stop offset="1"/></linearGradient><linearGradient id="g" x1="21.886" x2="51.496" y1="23.147" y2="25.284" gradientUnits="userSpaceOnUse"><stop stop-color="#323232"/><stop offset="1"/></linearGradient><linearGradient id="h" x1="33.131" x2="50.957" y1="23.147" y2="23.919" gradientUnits="userSpaceOnUse"><stop stop-color="#323232"/><stop offset="1"/></linearGradient><linearGradient id="i" x1="49.719" x2="50.017" y1="23.147" y2="23.147" gradientUnits="userSpaceOnUse"><stop stop-color="#323232"/><stop offset="1"/></linearGradient><linearGradient id="j" x1="51.569" x2="69.394" y1="23.147" y2="23.919" gradientUnits="userSpaceOnUse"><stop stop-color="#323232"/><stop offset="1"/></linearGradient><linearGradient id="k" x1="31.284" x2="76.019" y1="31.884" y2="41.19" gradientUnits="userSpaceOnUse"><stop stop-color="#323232"/><stop offset="1"/></linearGradient><linearGradient id="m" x1="35.063" x2="66.989" y1="60.04" y2="71.713" gradientUnits="userSpaceOnUse"><stop stop-color="#323232"/><stop offset="1"/></linearGradient></defs></svg>