<svg xmlns="http://www.w3.org/2000/svg" width="100" height="100" fill="none"><circle cx="50" cy="50" r="49.444" stroke="#fff" stroke-width="1.111"/><circle cx="50" cy="50" r="44.444" fill="#fff"/><circle cx="50" cy="50" r="38.333" fill="#fff" stroke="#DDE5ED" stroke-width="1.111"/><path fill="#1D1D1D" d="M39.737 35.308h-.71l2.054-5.595h.699l2.054 5.595h-.71l-1.672-4.71h-.044l-1.671 4.71Zm.262-2.186h2.863v.601h-2.863v-.6Zm5.384-3.409v5.595h-.677v-5.595h.677Zm5.86 1.748h-.677a1.408 1.408 0 0 0-.571-.885 1.529 1.529 0 0 0-.467-.229 1.864 1.864 0 0 0-.536-.077c-.338 0-.645.086-.92.257a1.781 1.781 0 0 0-.653.757c-.16.333-.24.742-.24 1.226 0 .485.08.894.24 1.227.162.333.38.585.653.757.275.17.581.256.92.256.186 0 .364-.025.536-.076.17-.051.327-.127.467-.227a1.438 1.438 0 0 0 .57-.888h.678a2.257 2.257 0 0 1-.279.768 2.098 2.098 0 0 1-1.177.934 2.517 2.517 0 0 1-.795.123c-.477 0-.901-.116-1.273-.35a2.4 2.4 0 0 1-.877-.994c-.213-.43-.32-.94-.32-1.53 0-.59.107-1.1.32-1.53a2.4 2.4 0 0 1 .877-.994c.372-.233.796-.35 1.273-.35.283 0 .547.042.795.124.25.082.475.202.675.36.2.157.368.348.502.574.135.224.228.48.28.768Zm1.095 3.847v-5.595h1.89c.439 0 .798.08 1.076.238.28.157.488.369.623.636.135.268.202.567.202.896 0 .33-.067.63-.202.899-.133.27-.338.484-.617.645-.279.158-.636.237-1.07.237h-1.356v-.6h1.333c.3 0 .542-.053.724-.156a.929.929 0 0 0 .396-.421c.084-.179.126-.38.126-.604 0-.224-.042-.424-.126-.6a.897.897 0 0 0-.399-.416c-.184-.102-.428-.153-.732-.153h-1.19v4.994h-.678Zm4.541 0h-.71l2.054-5.595h.7l2.054 5.595h-.71l-1.672-4.71h-.044l-1.672 4.71Zm.262-2.186h2.863v.601h-2.863v-.6Z"/><path stroke="#4D585F" stroke-width=".321" d="M26.282 38.993h47.436"/><path fill="#1D1D1D" d="M33.525 47.033c-.05-.496-.26-.881-.633-1.156-.373-.274-.88-.412-1.519-.412-.434 0-.8.062-1.1.185a1.551 1.551 0 0 0-.688.498 1.199 1.199 0 0 0-.234.725c-.008.225.04.422.142.59.106.168.252.313.436.436.184.12.398.224.64.314.241.086.5.16.774.221l1.13.27a7.973 7.973 0 0 1 1.513.492 4.59 4.59 0 0 1 1.192.756c.336.3.596.652.78 1.057.189.406.285.871.29 1.395-.005.77-.201 1.439-.59 2.004-.386.561-.943.998-1.672 1.31-.726.307-1.6.46-2.625.46-1.016 0-1.901-.155-2.655-.467-.75-.311-1.336-.772-1.758-1.383-.418-.614-.637-1.375-.657-2.28h2.575c.028.422.15.774.362 1.057.217.279.506.49.867.633.365.14.777.21 1.235.21.451 0 .842-.066 1.174-.197.336-.132.596-.314.78-.547.185-.234.278-.502.278-.806 0-.282-.084-.52-.252-.713-.164-.192-.406-.356-.726-.491a7.373 7.373 0 0 0-1.161-.37l-1.371-.343c-1.061-.258-1.9-.662-2.514-1.211-.614-.55-.92-1.289-.916-2.219-.004-.762.2-1.428.609-1.997.414-.57.981-1.015 1.702-1.334.721-.32 1.541-.48 2.459-.48.934 0 1.75.16 2.446.48.7.32 1.246.764 1.635 1.334.39.57.59 1.229.602 1.979h-2.55Zm16.08 2.673c0 1.373-.26 2.54-.781 3.504-.516.962-1.221 1.698-2.114 2.206-.89.504-1.89.756-3 .756-1.118 0-2.122-.254-3.011-.762-.89-.508-1.592-1.244-2.108-2.206-.517-.963-.775-2.13-.775-3.498 0-1.372.258-2.54.775-3.503.516-.963 1.219-1.696 2.108-2.2.889-.508 1.893-.763 3.011-.763 1.11 0 2.11.255 3 .763.893.504 1.598 1.237 2.114 2.2.52.963.78 2.13.78 3.503Zm-2.699 0c0-.889-.133-1.639-.4-2.25-.261-.61-.632-1.073-1.112-1.388-.479-.316-1.04-.474-1.684-.474-.643 0-1.204.158-1.684.474-.48.315-.852.778-1.118 1.389-.263.61-.394 1.36-.394 2.25 0 .888.131 1.638.394 2.249.266.61.639 1.073 1.118 1.389.48.315 1.041.473 1.684.473.644 0 1.205-.158 1.684-.473.48-.316.85-.779 1.113-1.39.266-.61.4-1.36.4-2.249Zm15.776-1.887H59.99a2.634 2.634 0 0 0-.301-.928 2.36 2.36 0 0 0-.584-.7 2.57 2.57 0 0 0-.823-.443 3.152 3.152 0 0 0-1.002-.154c-.652 0-1.22.162-1.703.486-.483.32-.858.787-1.125 1.401-.266.61-.4 1.352-.4 2.225 0 .898.134 1.652.4 2.262.27.61.648 1.072 1.131 1.383.484.311 1.043.467 1.678.467.357 0 .686-.047.99-.141a2.6 2.6 0 0 0 .817-.412 2.37 2.37 0 0 0 .59-.67c.16-.262.27-.561.332-.897l2.692.012a5.022 5.022 0 0 1-1.635 3.104 5.238 5.238 0 0 1-1.66.995c-.638.242-1.362.363-2.169.363-1.123 0-2.126-.254-3.012-.762-.88-.508-1.577-1.244-2.09-2.206-.507-.963-.761-2.13-.761-3.498 0-1.372.258-2.54.774-3.503.516-.963 1.217-1.696 2.102-2.2.885-.508 1.88-.763 2.987-.763.73 0 1.406.103 2.028.308a5.144 5.144 0 0 1 1.666.897c.483.39.877.867 1.18 1.432.307.566.504 1.213.59 1.942ZM64.517 56v-1.918l4.48-4.148c.381-.37.701-.701.96-.996.261-.295.46-.584.595-.867.136-.286.203-.596.203-.928 0-.368-.084-.686-.252-.952a1.654 1.654 0 0 0-.688-.621 2.158 2.158 0 0 0-.99-.221c-.385 0-.72.078-1.008.233a1.61 1.61 0 0 0-.663.67c-.156.291-.234.637-.234 1.039h-2.526c0-.824.186-1.539.56-2.145a3.735 3.735 0 0 1 1.566-1.408c.672-.332 1.447-.498 2.324-.498.901 0 1.686.16 2.354.48.672.315 1.194.754 1.567 1.315.373.562.56 1.205.56 1.93 0 .475-.095.945-.283 1.408-.185.463-.515.977-.99 1.542-.475.562-1.145 1.236-2.01 2.022l-1.838 1.801v.086h5.286V56h-8.973Z"/><path stroke="#4D585F" stroke-width=".321" d="M26.282 59.685h47.436"/><path fill="#1D1D1D" d="M34.888 65.013v-.847h5.05v.847h-2.036v5.68h-.981v-5.68h-2.033Zm5.663-.847h1.119l1.705 2.967h.07l1.705-2.967h1.119L43.9 68.13v2.562h-.982V68.13l-2.368-3.964Zm6.648 6.526v-6.526h2.326c.508 0 .928.092 1.262.277.334.185.583.438.749.758a2.3 2.3 0 0 1 .248 1.078 2.3 2.3 0 0 1-.251 1.083 1.821 1.821 0 0 1-.752.759c-.334.184-.754.277-1.26.277h-1.599v-.835h1.51c.321 0 .582-.055.781-.166.2-.113.347-.266.44-.459.094-.193.14-.413.14-.66 0-.246-.046-.465-.14-.656a1.006 1.006 0 0 0-.443-.45c-.2-.108-.463-.162-.79-.162h-1.237v5.682H47.2Zm5.74 0v-6.526h4.092v.847h-3.107v1.989h2.893v.845h-2.893v1.998h3.145v.847h-4.13Zm7.693 0v-.713l2.209-2.289c.236-.248.43-.466.583-.653a2.5 2.5 0 0 0 .347-.539c.077-.17.115-.35.115-.541 0-.217-.051-.404-.153-.561a1 1 0 0 0-.417-.367 1.328 1.328 0 0 0-.596-.13c-.234 0-.438.047-.612.143a.983.983 0 0 0-.402.405 1.28 1.28 0 0 0-.14.612h-.94c0-.398.091-.745.274-1.043.183-.297.433-.528.752-.691a2.32 2.32 0 0 1 1.087-.249c.41 0 .771.082 1.083.246.315.161.56.382.736.663.177.278.265.592.265.943 0 .242-.046.479-.137.71-.09.232-.246.49-.469.775a13.2 13.2 0 0 1-.93 1.03L61.99 69.8v.048h2.938v.844h-4.296Z"/></svg>