<?xml version="1.0" encoding="utf-8" ?>
<svg baseProfile="full" height="500" version="1.1" viewBox="0 0 500 500" width="500" xmlns="http://www.w3.org/2000/svg" xmlns:ev="http://www.w3.org/2001/xml-events" xmlns:xlink="http://www.w3.org/1999/xlink">
<defs />
<polygon fill="#17356b" points="261,14 75,14 49,22 37,29 20,45 8,64 1,92 1,412 5,433 13,450 29,466 37,469 39,472 55,476 56,478 77,479 90,478 111,469 127,455 135,443 143,420 142,413 144,408 142,400 143,390 140,388 102,425 79,429 67,424 61,418 57,408 57,96 65,80 78,70 87,67 252,67 254,69 253,138 256,151 265,164 280,173 288,175 327,174 347,157 375,128 374,123 271,20" />
<polygon fill="#ff5a0a" points="393,227 389,228 339,278 339,408 331,421 314,426 161,426 153,451 146,462 130,476 129,480 313,481 345,475 367,462 383,444 394,416" />
<polygon fill="#ff5a0a" points="498,63 466,68 383,88 384,93 412,116 248,280 134,167 120,162 106,166 97,179 96,424 101,423 123,404 143,380 144,246 242,344 248,344 446,148 472,172 476,172" />
</svg>